<?xml version="1.0" encoding="utf-8" ?>
<svg baseProfile="full" height="200mm" version="1.1" viewBox="0,0,200,200" width="200mm" xmlns="http://www.w3.org/2000/svg" xmlns:ev="http://www.w3.org/2001/xml-events" xmlns:xlink="http://www.w3.org/1999/xlink"><defs /><rect fill="#1a1a1a" height="200" width="200" x="0" y="0" /><text alignment-baseline="middle" fill="#e1ed5e" style="dominant-baseline: central; font-size:9.0px; font-family:Arial;" text-anchor="middle" x="100.0" y="100.0">2024</text><line stroke="#e1ed5e" stroke-width="0.3" x1="100.0" x2="100.0" y1="15.0" y2="10.0" /><path d="M 100.0 14.0 a86.0,86.0 0 0,1 42.35913384403234,11.155469271406648" fill="none" id="id61" stroke="none" /><text fill="#e1ed5e" style="font-size:6.75px; font-family:Arial;" text-anchor="middle"><textPath startOffset="22.145653131862478" xlink:href="#id61">January</textPath></text><path d="M 100.0 79.0 l 0.0 -57.43177979158236 a78.43177979158236,78.43177979158236 0 0,0 1.3463857951508964,0.011557102751113761 l -0.9858928703020416 57.42331708702568" fill="#46fff5" stroke="none" /><path d="M 100.36049292484886 79.00309439819443 l 0.49308595463742216 -28.71978485413824 a49.72401740402357,49.72401740402357 0 0,0 0.8533273258726111,0.02197868495406778 l -0.9860265945807746 28.707088451834128" fill="#b1ff20" stroke="none" /><path d="M 101.44090949804482 79.04949213459386 l 3.449510474022783 -50.155125228807016 a71.27360847629407,71.27360847629407 0 0,0 1.2199021305062294,0.09442814010146537 l -4.309981599304246 50.0885193217105" fill="#3cffa7" stroke="none" /><path d="M 101.80034050326958 79.07731436759882 l 1.7405347882186792 -20.2276525690676 a41.302398621933975,41.302398621933975 0 0,0 0.7058785189837307,0.06684742964688836 l -2.087512870587423 20.194793383915528" fill="#ffe315" stroke="none" /><path d="M 102.51750503828377 79.15144685158666 l 4.404963231257295 -36.47941459782789 a57.744406247331675,57.744406247331675 0 0,0 0.9830907569128093,0.1272807806449907 l -5.030531810060896 36.398422220982496" fill="#56ff2a" stroke="none" /><path d="M 102.87502721639298 79.19773525538626 l 5.233732576853994 -37.868681745148606 a59.228641275899065,59.228641275899065 0 0,0 1.0059699700991327,0.14784294312610194 l -5.883027652560808 37.77325772872362" fill="#46ff2c" stroke="none" /><path d="M 103.94208987418118 79.37332000966035 l 7.200790311933574 -37.67757767639513 a59.3595000055687,59.3595000055687 0 0,0 0.9992281842425579,0.19987362186594185 l -7.846514981707088 37.54841465786633" fill="#45ff2d" stroke="none" /><path d="M 104.64783097203109 79.52079915486377 l 7.846543882100848 -34.5733201290444 a56.45254173735814,56.45254173735814 0 0,0 0.9432086540617192,0.22259467413455006 l -8.438884689902451 34.43352931126362" fill="#64ff29" stroke="none" /><path d="M 106.04205211174951 79.88797359093562 l 11.210387369919234 -37.31573357356783 a59.96327446605511,59.96327446605511 0 0,0 0.9832816783845465,0.3046231774440636 l -11.84930968117541 37.117793808317124" fill="#3fff2d" stroke="none" /><path d="M 106.38641147887787 79.99465700312896 l 7.1987517902608555 -22.549987452235335 a44.671163077334306,44.671163077334306 0 0,0 0.728517030324605,0.2394780180545872 l -7.584791558233203 22.423088512778726" fill="#efff19" stroke="none" /><path d="M 106.72888874123014 80.10723608172694 l 20.186666223690402 -59.67829175481916 a84.0,84.0 0 0,0 1.3619769118199267,0.4737662697256382 l -21.208148907555344 59.32296705252493" fill="#4dd2ff" stroke="none" /><path d="M 107.06938296918511 80.22567764915836 l 10.358737893092119 -28.97523350181342 a51.7712139380687,51.7712139380687 0 0,0 0.8342828775560778,0.30636022866055335 l -10.854609922302322 28.793142424144143" fill="#99ff23" stroke="none" /><path d="M 107.74402155503746 80.48000691201159 l 2.9104874765894 -7.336329712143609 a28.89257062031534,28.89257062031534 0 0,0 0.45945452682830845,0.18685615621054888 l -3.0359964646081483 7.285286299353766" fill="#ff3505" stroke="none" /><path d="M 108.73861861582097 80.90454125486305 l 8.85670674136749 -19.353502610969677 a42.28378062317394,42.28378062317394 0 0,0 0.6574348377927456,0.307712699918014 l -9.187630293031742 19.19861367948113" fill="#fff016" stroke="none" /><line stroke="#e1ed5e" stroke-width="0.3" x1="143.13028292997686" x2="145.6673583964461" y1="26.7553504044142" y2="22.446841604673864" /><path d="M 143.63769802327073 25.89364864446614 a86.0,86.0 0 0,1 29.32050498858742,28.57503671076993" fill="none" id="id62" stroke="none" /><text fill="#e1ed5e" style="font-size:6.75px; font-family:Arial;" text-anchor="middle"><textPath startOffset="20.669276256404974" xlink:href="#id62">February</textPath></text><path d="M 113.59037401385872 83.9905735841838 l 2.865192898378829 -3.3751900298651947 a25.427328549206834,25.427328549206834 0 0,0 0.33033795252548975,0.28533805563656806 l -2.9227103306671793 3.3255078417639066" fill="#ff0000" stroke="none" /><path d="M 117.21940702142032 87.97951657250589 l 13.397790909144174 -9.352698579461013 a37.3393320537713,37.3393320537713 0 0,0 0.36238757585805237,0.5287343032608155 l -13.55636822181755 9.121329541130148" fill="#ffae10" stroke="none" /><line stroke="#e1ed5e" stroke-width="0.3" x1="172.87174338648825" x2="177.1583165268699" y1="56.24261187166439" y2="53.66864786411523" /><path d="M 173.72905801456457 55.72781907015455 a86.0,86.0 0 0,1 12.242430191666344,42.057860355516425" fill="none" id="id63" stroke="none" /><text fill="#e1ed5e" style="font-size:6.75px; font-family:Arial;" text-anchor="middle"><textPath startOffset="22.145653131862474" xlink:href="#id63">March</textPath></text><path d="M 118.18653347947321 89.5 l 23.443696995295504 -13.535224771033885 a48.07044954206776,48.07044954206776 0 0,0 0.4064622841473672,0.7181799096245577 l -23.67259264446425 13.130788091310208" fill="#c5ff1e" stroke="none" /><path d="M 118.53625476483649 90.13048839642627 l 24.594878042739307 -13.095387245743725 a48.863904842164665,48.863904842164665 0 0,0 0.387867555026904,0.7437871790182018 l -24.816053666741155 12.671253823621026" fill="#bbff1f" stroke="none" /><path d="M 118.70294669586156 90.45014215332178 l 31.468384970732803 -16.067981587176327 a56.33326032157349,56.33326032157349 0 0,0 0.43237141846176325,0.8650324710543833 l -31.739576302406302 15.525417259958193" fill="#65ff29" stroke="none" /><path d="M 119.31412917781788 91.75594674310238 l 28.937636773170837 -12.351756400219546 a52.463513919877634,52.463513919877634 0 0,0 0.3464444516898804,0.8313405653814414 l -29.1454070693972 11.853183325396827" fill="#91ff24" stroke="none" /><path d="M 119.71291397450082 92.76114493625339 l 19.698057733900512 -7.233399646417799 a41.98417377293838,41.98417377293838 0 0,0 0.24262819952044473,0.6786742562448426 l -19.8193261034649 6.89419043379204" fill="#ffec16" stroke="none" /><path d="M 120.26092885502905 94.47779374421319 l 37.07424362026012 -10.104749960540305 a59.426625037588686,59.426625037588686 0 0,0 0.25980901422493485,0.9865371451157613 l -37.242242115289784 9.466832311051744" fill="#44ff2d" stroke="none" /><path d="M 120.43855184770803 95.1765574152323 l 38.13986606949809 -9.000904542930412 a60.187570304756036,60.187570304756036 0 0,0 0.22868163712161266,1.0076134877515828 l -38.28875856817737 8.344856721239802" fill="#3cff2e" stroke="none" /><path d="M 120.65975698304385 96.23510406497455 l 32.769770941196136 -5.971743883990615 a54.3094523004273,54.3094523004273 0 0,0 0.15926940627707667,0.9186236112085011 l -32.86745516496544 5.408327239861522" fill="#7cff26" stroke="none" /><path d="M 120.82617615685814 97.30363454192243 l 48.21075419368333 -6.241847343296801 a69.61314100303308,69.61314100303308 0 0,0 0.14326355824109308,1.186427777819408 l -48.31079983818408 5.41332588855398" fill="#3aff93" stroke="none" /><path d="M 120.86939407059847 97.66154086499901 l 12.849224017524577 -1.4397823520801782 a33.929637700797805,33.929637700797805 0 0,0 0.05989002350154472,0.5793816495278404 l -12.872046433507787 1.2189961802694063" fill="#ff7e0b" stroke="none" /><path d="M 120.9064616781168 98.02013634271609 l 25.204478388348857 -2.3868903083740163 a46.317246615162446,46.317246615162446 0 0,0 0.06816658568999993,0.7921990536989149 l -25.241738596736596 1.9538702072994394" fill="#dbff1b" stroke="none" /><path d="M 120.98066250479742 99.09900007780936 l 37.5801727928099 -1.61385431725477 a58.614809754866116,58.614809754866116 0 0,0 0.03454174368269845,1.0056451789735321 l -37.602339223489444 0.9685028737171179" fill="#4dff2c" stroke="none" /><line stroke="#e1ed5e" stroke-width="0.3" x1="184.99686870605535" x2="189.99668451229388" y1="99.2704041080226" y2="99.22748670261217" /><path d="M 185.99683186730306 99.26182062694052 a86.0,86.0 0 0,1 -10.086455211305974,41.156179273409016" fill="none" id="id64" stroke="none" /><text fill="#e1ed5e" style="font-size:6.75px; font-family:Arial;" text-anchor="middle"><textPath startOffset="21.40746469413373" xlink:href="#id64">April</textPath></text><path d="M 120.99922638620191 99.81974689727618 l 57.948869935229084 -0.49742135319937647 a78.95100477793906,78.95100477793906 0 0,0 0.0,1.3553489118463997 l -57.948869935229084 -0.4974213531993694" fill="#46fffa" stroke="none" /><line stroke="#e1ed5e" stroke-width="0.3" x1="174.33088141563837" x2="178.70328620479359" y1="141.23008692659167" y2="143.65538615756765" /><path d="M 175.20536237346943 141.71514677278685 a86.0,86.0 0 0,1 -30.301960400862466,31.631185727798858" fill="none" id="id65" stroke="none" /><text fill="#e1ed5e" style="font-size:6.75px; font-family:Arial;" text-anchor="middle"><textPath startOffset="22.145653131862474" xlink:href="#id65">May</textPath></text><line stroke="#e1ed5e" stroke-width="0.3" x1="143.1302829299769" x2="145.66735839644613" y1="173.24464959558577" y2="177.55315839532614" /><path d="M 143.63769802327073 174.10635135553383 a86.0,86.0 0 0,1 -40.68552437913181,11.842963189579606" fill="none" id="id66" stroke="none" /><text fill="#e1ed5e" style="font-size:6.75px; font-family:Arial;" text-anchor="middle"><textPath startOffset="21.407464694133747" xlink:href="#id66">June</textPath></text><line stroke="#e1ed5e" stroke-width="0.3" x1="101.45913802915013" x2="101.54496967792366" y1="184.9874750549273" y2="189.98673829345242" /><path d="M 101.47630435890484 185.9873277026323 a86.0,86.0 0 0,1 -42.54439059252881,-10.42667462771756" fill="none" id="id67" stroke="none" /><text fill="#e1ed5e" style="font-size:6.75px; font-family:Arial;" text-anchor="middle"><textPath startOffset="22.145653131862474" xlink:href="#id67">July</textPath></text><line stroke="#e1ed5e" stroke-width="0.3" x1="58.13341422392154" x2="55.67067388415222" y1="173.97424548756322" y2="178.32567169271397" /><path d="M 57.64086615596768 174.84453072859336 a86.0,86.0 0 0,1 -31.369924170532247,-30.572349798747897" fill="none" id="id68" stroke="none" /><text fill="#e1ed5e" style="font-size:6.75px; font-family:Arial;" text-anchor="middle"><textPath startOffset="22.145653131862474" xlink:href="#id68">August</textPath></text><line stroke="#e1ed5e" stroke-width="0.3" x1="26.387840678322732" x2="22.057713659400548" y1="142.50000000000003" y2="145.00000000000006" /><path d="M 25.521815274538298 143.00000000000003 a86.0,86.0 0 0,1 -11.493303480769221,-40.785679425670985" fill="none" id="id69" stroke="none" /><text fill="#e1ed5e" style="font-size:6.75px; font-family:Arial;" text-anchor="middle"><textPath startOffset="21.40746469413373" xlink:href="#id69">September</textPath></text><line stroke="#e1ed5e" stroke-width="0.3" x1="15.003131293944662" x2="10.003315487706104" y1="100.72959589197737" y2="100.7725132973878" /><path d="M 14.003168132696942 100.73817937305945 a86.0,86.0 0 0,1 10.791469493833604,-42.45332614584628" fill="none" id="id70" stroke="none" /><text fill="#e1ed5e" style="font-size:6.75px; font-family:Arial;" text-anchor="middle"><textPath startOffset="22.145653131862435" xlink:href="#id70">October</textPath></text><line stroke="#e1ed5e" stroke-width="0.3" x1="26.387840678322718" x2="22.05771365940052" y1="57.49999999999999" y2="54.99999999999999" /><path d="M 25.521815274538284 56.99999999999999 a86.0,86.0 0 0,1 29.574782752854787,-30.34633250058573" fill="none" id="id71" stroke="none" /><text fill="#e1ed5e" style="font-size:6.75px; font-family:Arial;" text-anchor="middle"><textPath startOffset="21.40746469413373" xlink:href="#id71">November</textPath></text><line stroke="#e1ed5e" stroke-width="0.3" x1="56.869717070023135" x2="54.33264160355391" y1="26.7553504044142" y2="22.446841604673864" /><path d="M 56.362301976729285 25.89364864446614 a86.0,86.0 0 0,1 42.16139366436587,-11.88097634709845" fill="none" id="id72" stroke="none" /><text fill="#e1ed5e" style="font-size:6.75px; font-family:Arial;" text-anchor="middle"><textPath startOffset="22.145653131862474" xlink:href="#id72">December</textPath></text></svg>