<?xml version="1.0" encoding="utf-8" ?>
<svg baseProfile="full" height="200mm" version="1.1" viewBox="0,0,200,200" width="200mm" xmlns="http://www.w3.org/2000/svg" xmlns:ev="http://www.w3.org/2001/xml-events" xmlns:xlink="http://www.w3.org/1999/xlink"><defs /><rect fill="#1a1a1a" height="200" width="200" x="0" y="0" /><text alignment-baseline="middle" fill="#e1ed5e" style="dominant-baseline: central; font-size:9.0px; font-family:Arial;" text-anchor="middle" x="100.0" y="100.0">2023</text><line stroke="#e1ed5e" stroke-width="0.3" x1="100.0" x2="100.0" y1="15.0" y2="10.0" /><path d="M 100.0 14.0 a86.0,86.0 0 0,1 42.46469731375804,11.215312516191453" fill="none" id="id49" stroke="none" /><text fill="#e1ed5e" style="font-size:6.75px; font-family:Arial;" text-anchor="middle"><textPath startOffset="22.20632615414155" xlink:href="#id49">January</textPath></text><path d="M 104.66035177308747 79.52364482259891 l 3.20003537964039 -14.060110524737476 a35.41967178540426,35.41967178540426 0 0,0 0.5933238833174782,0.14042059365541154 l -3.4415829499203916 14.002944018941195" fill="#ff880c" stroke="none" /><path d="M 105.36241919743992 79.69619591428918 l 6.710112937829155 -25.406596065395156 a47.27776130625619,47.27776130625619 0 0,0 0.7850407219175763,0.21458128438514687 l -7.146451548970443 25.287328240183715" fill="#d6ff1c" stroke="none" /><path d="M 108.76106565485865 80.91482961587045 l 16.588715392933732 -36.136980614041626 a60.76263127972515,60.76263127972515 0 0,0 0.9468027092140315,0.4445365672142702 l -17.20829631344736 35.84607906418735" fill="#3aff2e" stroke="none" /><path d="M 110.36928655335952 81.73862282372117 l 8.340048704516606 -14.68768118982784 a37.89036385421379,37.89036385421379 0 0,0 0.5643918867464615,0.32693220977913706 l -8.591637323728396 14.541944822658653" fill="#ffab0f" stroke="none" /><line stroke="#e1ed5e" stroke-width="0.3" x1="143.23703022742887" x2="145.7803849466894" y1="26.81831364943548" y2="22.513508569990506" /><path d="M 143.74570117128098 25.957352633546492 a86.0,86.0 0 0,1 28.547481713284135,27.462654790039103" fill="none" id="id50" stroke="none" /><text fill="#e1ed5e" style="font-size:6.75px; font-family:Arial;" text-anchor="middle"><textPath startOffset="19.985693538727396" xlink:href="#id50">February</textPath></text><path d="M 114.16331599549186 84.49514656593476 l 19.949680207114877 -21.839297221515295 a50.579463204998106,50.579463204998106 0 0,0 0.6377639570748632,0.592732092074119 l -20.322652047984587 21.492660543366537" fill="#adff20" stroke="none" /><path d="M 114.42810811169701 84.74124197986012 l 17.99870809599707 -19.034923316751435 a47.19698071915002,47.19698071915002 0 0,0 0.585504968011438,0.5632553153320252 l -18.323696307620928 18.722284914657106" fill="#d7ff1c" stroke="none" /><path d="M 115.19652480421416 85.50635884689758 l 21.671435143968658 -20.66906798074724 a50.94764552334608,50.94764552334608 0 0,0 0.5998058496207813,0.6398310601220106 l -22.024008315559904 20.292967503747175" fill="#a9ff21" stroke="none" /><path d="M 115.9244219780498 86.31012108654704 l 19.190188169948257 -16.49738701568509 a46.30666118521598,46.30666118521598 0 0,0 0.5144215513980456,0.6089128599454582 l -19.471320334833422 16.164615206110522" fill="#e2ff1b" stroke="none" /><path d="M 117.45458315368197 88.32363383020206 l 14.183542712108403 -9.488180659107375 a38.06453796872516,38.06453796872516 0 0,0 0.3596253526924329,0.5477340846278431 l -14.34476470015876 9.242628510501858" fill="#ffae10" stroke="none" /><line stroke="#e1ed5e" stroke-width="0.3" x1="172.23445277983987" x2="176.4835382374775" y1="55.19839476539836" y2="52.563006222186495" /><path d="M 173.08426987136738 54.67131705675599 a86.0,86.0 0 0,1 12.851231095245387,41.99856678651699" fill="none" id="id51" stroke="none" /><text fill="#e1ed5e" style="font-size:6.75px; font-family:Arial;" text-anchor="middle"><textPath startOffset="22.20632615414155" xlink:href="#id51">March</textPath></text><path d="M 118.89224826269711 90.83032412892265 l 23.984419554616206 -11.641248315903828 a47.66028964066951,47.66028964066951 0 0,0 0.3518732089483066,0.7411347169013911 l -24.18125095740627 11.226671183361898" fill="#d1ff1c" stroke="none" /><path d="M 119.196687751892 91.48605970444005 l 26.23496669111232 -11.635493734700127 a49.69944584367473,49.69944584367473 0 0,0 0.3401081944479346,0.7850166047580341 l -26.431365595402934 11.182177985355489" fill="#b8ff1f" stroke="none" /><path d="M 119.34039704204932 91.81776055985345 l 17.876377153110226 -7.562864292346212 a40.41035230037535,40.41035230037535 0 0,0 0.2655120115590602,0.6429583962141079 l -18.003910851555485 7.254031325678801" fill="#ffce13" stroke="none" /><path d="M 119.7369772167798 92.82701384747503 l 18.12095504687575 -6.585677137594343 a40.2805641818782,40.2805641818782 0 0,0 0.23122371025562624,0.653700565812342 l -18.231631837941183 6.272778945355387" fill="#ffcc13" stroke="none" /><path d="M 119.85752413597 93.16781622104841 l 25.938224764749076 -8.924310869727785 a48.430545536794995,48.430545536794995 0 0,0 0.2644370197789732,0.7906330309599525 l -26.08799907829982 8.476504735845518" fill="#c8ff1d" stroke="none" /><path d="M 120.08093135843002 93.85539295169968 l 13.373456884315408 -4.092172617133505 a34.98553630595053,34.98553630595053 0 0,0 0.17125270564934067,0.5773789891692771 l -13.44191548707645 3.861364241217698" fill="#ff820c" stroke="none" /><path d="M 120.28053869075195 94.5502522615342 l 60.84161607225586 -16.349243215397394 a84.0,84.0 0 0,0 0.36321467251878925,1.3996142978045985 l -61.11402707664495 15.299532492043943" fill="#4dd2ff" stroke="none" /><path d="M 120.45610955862082 95.25157060432595 l 5.237140200725265 -1.2156852409851289 a26.376386154955924,26.376386154955924 0 0,0 0.09885569719032261,0.4431507068499304 l -5.257290284917625 1.1253563645852347" fill="#ff0000" stroke="none" /><path d="M 120.53481517161879 95.60439243477599 l 11.950543883330303 -2.558089793508829 a33.2212651758751,33.2212651758751 0 0,0 0.11488341274603066,0.5602123205632412 l -11.99280659199133 2.352001816782176" fill="#ff6809" stroke="none" /><path d="M 120.83666639777658 97.38593545837742 l 17.67668534854108 -2.2176290343627754 a38.815248621486475,38.815248621486475 0 0,0 0.07746349370497287,0.6636599079058261 l -17.712239195249644 1.9130253881320967" fill="#ffb811" stroke="none" /><path d="M 120.87857604477298 97.74499172005257 l 53.55178238076061 -5.7839055889441555 a74.86322456015944,74.86322456015944 0 0,0 0.12734902676122223,1.2823873202218126 l -53.64340853320407 4.861242738017908" fill="#41ffcd" stroke="none" /><path d="M 120.91429891909075 98.10471618934814 l 27.043303883928594 -2.4507030446506035 a48.15411995207297,48.15411995207297 0 0,0 0.06770358322871053,0.8261552022780759 l -27.0814819509768 1.9848339251647589" fill="#cbff1d" stroke="none" /><line stroke="#e1ed5e" stroke-width="0.3" x1="184.98032266829074" x2="189.97916517819016" y1="98.17113171792111" y2="98.06355123074" /><path d="M 185.9800911702706 98.14961562048488 a86.0,86.0 0 0,1 -9.607161424134198,41.387399972396054" fill="none" id="id52" stroke="none" /><text fill="#e1ed5e" style="font-size:6.75px; font-family:Arial;" text-anchor="middle"><textPath startOffset="21.466115282336823" xlink:href="#id52">April</textPath></text><path d="M 120.8583938346157 102.4346265915055 l 23.407165825187246 2.7321235183125885 a44.5660754239464,44.5660754239464 0 0,0 -0.09549553013660578,0.761193334078973 l -23.356668785803794 -3.1346346066789565" fill="#f9ff18" stroke="none" /><path d="M 120.81339534386255 102.79330883721812 l 33.46528609472547 4.491284475408485 a54.76532259050506,54.76532259050506 0 0,0 -0.1334342715107215,0.9332389841650388 l -33.38301777219815 -5.0666689315539335" fill="#7cff26" stroke="none" /><path d="M 120.76222939487914 103.15116336523771 l 11.232637462843133 1.7048205659763112 a32.36127446785099,32.36127446785099 0 0,0 -0.08832816567285943,0.550019571960714 l -11.201627542808986 -1.8979193676302302" fill="#ff5b08" stroke="none" /><path d="M 119.41010516605496 108.01547362559984 l 21.438927595512357 8.85328323740867 a44.19500464598795,44.19500464598795 0 0,0 -0.29642014478994055,0.7006496611881736 l -21.28335646953011 -9.221007424263005" fill="#feff18" stroke="none" /><line stroke="#e1ed5e" stroke-width="0.3" x1="174.80103733775053" x2="179.2010983576182" y1="140.37084112569926" y2="142.7455964860345" /><path d="M 175.68104954172406 140.8457921977663 a86.0,86.0 0 0,1 -30.038265399797805,32.042727171017184" fill="none" id="id53" stroke="none" /><text fill="#e1ed5e" style="font-size:6.75px; font-family:Arial;" text-anchor="middle"><textPath startOffset="22.206326154141568" xlink:href="#id53">May</textPath></text><path d="M 117.75023020441432 111.22182372390056 l 17.684608976430077 11.180337509665309 a41.92236462446968,41.92236462446968 0 0,0 -0.39086643377167396,0.6066333852187298 l -17.48953767928135 -11.483092494805492" fill="#ffe215" stroke="none" /><path d="M 117.14729908036423 112.12312394758627 l 17.6039642907395 12.445985811835758 a42.55926996857845,42.55926996857845 0 0,0 -0.4280656113859958,0.5945456945387528 l -17.387118886977902 -12.747165111825641" fill="#ffeb16" stroke="none" /><path d="M 116.93607887273984 112.41649034213515 l 22.21039471466268 16.283293998677802 a48.53992187404482,48.53992187404482 0 0,0 -0.4998195819410784,0.6695900093588029 l -21.92681386602651 -16.66319688754592" fill="#c6ff1e" stroke="none" /><path d="M 115.80600337817218 113.82643327865902 l 12.823040797997791 11.21706188345392 a38.03680875646465,38.03680875646465 0 0,0 -0.43532430343975587,0.4890914697558213 l -12.628057644909697 -11.436127522950608" fill="#ffad10" stroke="none" /><path d="M 115.56566222782051 114.09645910891815 l 13.672646588200868 12.382120382696339 a39.44608820041325,39.44608820041325 0 0,0 -0.46011719024803777,0.4993663357655112 l -13.457482989957109 -12.615637973263185" fill="#ffc111" stroke="none" /><line stroke="#e1ed5e" stroke-width="0.3" x1="143.8653032363475" x2="146.44561519142675" y1="172.8068346515853" y2="177.08958963109032" /><path d="M 144.38136562736335 173.6633856474863 a86.0,86.0 0 0,1 -40.68145358897372,12.25698825130547" fill="none" id="id54" stroke="none" /><text fill="#e1ed5e" style="font-size:6.75px; font-family:Arial;" text-anchor="middle"><textPath startOffset="21.466115282336833" xlink:href="#id54">June</textPath></text><path d="M 107.93186726928326 119.44442032107085 l 8.502881512475648 20.84422197899171 a43.51178766612463,43.51178766612463 0 0,0 -0.6959377343234636,0.27692798700526894 l -8.142822702110319 -20.987496810403044" fill="#fff717" stroke="none" /><path d="M 103.41894727170886 120.7198165907248 l 3.1472406381415037 19.073195228475754 a40.33111222506143,40.33111222506143 0 0,0 -0.6859441365510497,0.10713036697560771 l -2.818460637981937 -19.124543902798468" fill="#ffcd13" stroke="none" /><path d="M 102.70371172650421 120.8252237178851 l 2.93628379208338 22.61660008716954 a43.80641054639263,43.80641054639263 0 0,0 -0.748615211412053,0.09064687660636679 l -2.546541157619947 -22.66379249250126" fill="#fffb17" stroke="none" /><line stroke="#e1ed5e" stroke-width="0.3" x1="102.19456741930631" x2="102.32365962044197" y1="184.97166512339345" y2="189.96999836594603" /><path d="M 102.22038585953345 185.97133177190398 a86.0,86.0 0 0,1 -42.740103519485714,-10.115201625700543" fill="none" id="id55" stroke="none" /><text fill="#e1ed5e" style="font-size:6.75px; font-family:Arial;" text-anchor="middle"><textPath startOffset="22.20632615414155" xlink:href="#id55">July</textPath></text><path d="M 97.2962882734958 120.8252237178851 l -1.3111758954875599 10.099276150394875 a31.184034612610187,31.184034612610187 0 0,0 -0.5317195812483787,-0.07369148892116327 l 1.4848240679227696 -10.075210095981106" fill="#ff4a06" stroke="none" /><path d="M 95.16358092515715 120.4354850818985 l -5.7211879309774485 24.173928852107654 a45.841715469917226,45.841715469917226 0 0,0 -0.7663135065452759,-0.18834121559384406 l 6.136454722265935 -24.07186637819978" fill="#e8ff1a" stroke="none" /><path d="M 93.08242187328487 119.8279376855182 l -11.690270197687036 33.50796257890309 a56.48867387609883,56.48867387609883 0 0,0 -0.9153328936191901,-0.32820580966736745 l 12.265322651935952 -33.30176922819577" fill="#69ff28" stroke="none" /><path d="M 92.40401165467489 119.57807347666478 l -5.925244249612888 15.271859567491406 a37.38103214290081,37.38103214290081 0 0,0 -0.597880992981059,-0.23790918596461658 l 6.187246318635805 -15.167603537120723" fill="#ffa40f" stroke="none" /><path d="M 90.7491055286396 118.85261126421891 l -13.675171991801456 27.86894849259419 a52.04333453558459,52.04333453558459 0 0,0 -0.8008381041110951,-0.4015568505276312 l 14.152864003595312 -27.629423801157255" fill="#9cff22" stroke="none" /><path d="M 90.42595943632237 118.69057910512821 l -14.240216252261357 27.799954112037454 a52.23493568974581,52.23493568974581 0 0,0 -0.7967297670175726,-0.416811358329336 l 14.716636921805426 -27.5507133347634" fill="#9aff23" stroke="none" /><path d="M 90.10565033884886 118.52300852407294 l -15.167511443217538 28.39478625409787 a53.19188235869472,53.19188235869472 0 0,0 -0.8038995264007902,-0.43835011869842466 l 15.654033781486968 -28.12949548363968" fill="#8eff24" stroke="none" /><line stroke="#e1ed5e" stroke-width="0.3" x1="58.666819895761336" x2="56.23545636021788" y1="174.27360380694188" y2="178.64263932499728" /><path d="M 58.180547188652646 175.14741091055294 a86.0,86.0 0 0,1 -31.652253787137756,-30.449443065178592" fill="none" id="id56" stroke="none" /><text fill="#e1ed5e" style="font-size:6.75px; font-family:Arial;" text-anchor="middle"><textPath startOffset="22.20632615414155" xlink:href="#id56">August</textPath></text><path d="M 86.24171649860922 115.8653595955263 l -25.44643660096102 29.343549074141265 a59.84024984411487,59.84024984411487 0 0,0 -0.7723884440108433,-0.68154299777508 l 25.94776739787845 -28.901182934593898" fill="#44ff2d" stroke="none" /><path d="M 84.67929136418377 114.36230785411682 l -22.14011075335393 20.755116106088032 a51.3473120514482,51.3473120514482 0 0,0 -0.5989385012745919,-0.6500294513429202 l 22.49409566262425 -20.370935399943768" fill="#a4ff21" stroke="none" /><path d="M 83.50135304334701 112.99209946851258 l -17.062547233790127 13.436150941953759 a42.71775011920627,42.71775011920627 0 0,0 -0.44994643381668914,-0.5816164190977284 l 17.291300484824887 -13.140456528742778" fill="#ffed16" stroke="none" /><path d="M 82.24976979558568 111.22182372390057 l -19.682624811371767 12.443497549792678 a44.2861836876918,44.2861836876918 0 0,0 -0.4018135222221644,-0.6478513380328912 l 19.893902973261888 -12.102849880394523" fill="#fcff18" stroke="none" /><path d="M 82.05923443525364 110.91462005526583 l -16.603422763551084 10.101021075555972 a40.4346153611033,40.4346153611033 0 0,0 -0.356631621364875,-0.5977351108200664 l 16.774835260614193 -9.813723870849794" fill="#ffce13" stroke="none" /><line stroke="#e1ed5e" stroke-width="0.3" x1="26.63291911575756" x2="22.317208475507996" y1="142.92168965132927" y2="145.44649492493687" /><path d="M 25.769776987707644 143.4266507060508 a86.0,86.0 0 0,1 -11.730757126820373,-40.83630448921669" fill="none" id="id57" stroke="none" /><text fill="#e1ed5e" style="font-size:6.75px; font-family:Arial;" text-anchor="middle"><textPath startOffset="21.46611528233685" xlink:href="#id57">September</textPath></text><path d="M 81.51974371655577 109.97397251340807 l -17.223099066133244 9.295472640994204 a40.57143206465259,40.57143206465259 0 0,0 -0.32640198500226125,-0.6174295478245836 l 17.38055355936039 -8.997628078083494" fill="#ffd013" stroke="none" /><path d="M 81.35079622478065 109.6543875284942 l -20.64210072533407 10.686077658146145 a44.24410845936595,44.24410845936595 0 0,0 -0.3443062408833463,-0.6793488776043884 l 20.822985636003686 -10.329174568839072" fill="#fdff18" stroke="none" /><path d="M 80.58989483394504 108.01547362559985 l -33.93899877617898 14.015233160378534 a57.71896510618528,57.71896510618528 0 0,0 -0.3713181568387946,-0.9215812136934753 l 34.175219547275155 -13.428952578842253" fill="#5bff2a" stroke="none" /><path d="M 80.32549172779594 107.34259656027581 l -15.462816203095148 5.770778079644701 a37.504561932241934,37.504561932241934 0 0,0 -0.22051921429804294,-0.606774168514272 l 15.559859678398416 -5.503756114124312" fill="#ffa60f" stroke="none" /><path d="M 80.0844068197444 106.66101706037122 l -23.04740914392456 7.708491738887134 a45.302343778655356,45.302343778655356 0 0,0 -0.2409820403429339,-0.7416664583183536 l 23.176683435283746 -7.3106263805909775" fill="#efff19" stroke="none" /><path d="M 79.67330655649465 105.27499134158121 l -7.5731167055942334 1.9653036615041575 a28.823970546881686,28.823970546881686 0 0,0 -0.12049611862422316,-0.481322096610521 l 7.605824138513515 -1.8346537254962445" fill="#ff2603" stroke="none" /><path d="M 79.58551787078972 104.9243191809786 l -32.860574714141826 7.926527713935633 a54.80306512941522,54.80306512941522 0 0,0 -0.21331292994996792,-0.9189465193064054 l 32.99214821002235 -7.359712537280654" fill="#7cff26" stroke="none" /><path d="M 79.4281124754447 104.21870165774334 l -33.073293865528704 6.782380055840539 a54.76156759301146,54.76156759301146 0 0,0 -0.18141742513349426,-0.9250435422791026 l 33.185141223637864 -6.212072786493481" fill="#7cff26" stroke="none" /><path d="M 79.23777060512086 103.15116336523772 l -27.326912726553406 4.147510589118257 a48.639862576567104,48.639862576567104 0 0,0 -0.11850974891201273,-0.8288569078702666 l 27.39425652648202 -3.67650820926759" fill="#c5ff1e" stroke="none" /><line stroke="#e1ed5e" stroke-width="0.3" x1="15.007084014347285" x2="10.007500721073583" y1="101.09737516637583" y2="101.16192664675087" /><path d="M 14.007167355692545 101.11028546245083 a86.0,86.0 0 0,1 10.666146001902534,-42.60595125391555" fill="none" id="id58" stroke="none" /><text fill="#e1ed5e" style="font-size:6.75px; font-family:Arial;" text-anchor="middle"><textPath startOffset="22.20632615414155" xlink:href="#id58">October</textPath></text><path d="M 81.10775173730289 90.83032412892265 l -29.788015387733072 -14.458122831653988 a54.11137533469452,54.11137533469452 0 0,0 0.41392622061134987,-0.8344500026321247 l 29.53472915416831 14.968732422785074" fill="#84ff25" stroke="none" /><line stroke="#e1ed5e" stroke-width="0.3" x1="26.266209847984243" x2="21.928928074336255" y1="57.711370442889674" y2="55.22380399835377" /><path d="M 25.398753493254645 57.213857153982495 a86.0,86.0 0 0,1 29.58750427330803,-30.492523968695096" fill="none" id="id59" stroke="none" /><text fill="#e1ed5e" style="font-size:6.75px; font-family:Arial;" text-anchor="middle"><textPath startOffset="21.46611528233685" xlink:href="#id59">November</textPath></text><line stroke="#e1ed5e" stroke-width="0.3" x1="56.762969772571076" x2="54.21961505331055" y1="26.818313649435495" y2="22.513508569990535" /><path d="M 56.25429882871897 25.957352633546506 a86.0,86.0 0 0,1 42.265352541879196,-11.944610805530505" fill="none" id="id60" stroke="none" /><text fill="#e1ed5e" style="font-size:6.75px; font-family:Arial;" text-anchor="middle"><textPath startOffset="22.20632615414155" xlink:href="#id60">December</textPath></text><path d="M 92.57280143429618 80.3572730644239 l -2.5407355609921614 -6.71948843141607 a28.18379161521439,28.18379161521439 0 0,0 0.45525905917255155,-0.16767575358249795 l 2.4246941760470406 6.762227452804891" fill="#ff1c02" stroke="none" /><path d="M 93.59665428221793 80.00007090966166 l -3.6626392193255715 -11.439726652050272 a33.01175557212896,33.01175557212896 0 0,0 0.5426733759998583,-0.1686112595217904 l 3.4651804706149845 11.501078046454587" fill="#ff6509" stroke="none" /><path d="M 93.94186890950719 79.89281104454417 l -10.858311714042173 -36.03918801197895 a58.63942090205524,58.63942090205524 0 0,0 0.968973937145088,-0.28287006326752273 l 10.236347559173664 36.22075640416517" fill="#51ff2b" stroke="none" /><path d="M 95.692805502759 79.44645832069477 l -4.420086480508849 -21.092251989425037 a42.550412025773,42.550412025773 0 0,0 0.7181569196641648,-0.14405552201510197 l 4.056363151377548 21.16521146751735" fill="#ffeb16" stroke="none" /></svg>