<?xml version="1.0" encoding="utf-8" ?>
<svg baseProfile="full" height="200mm" version="1.1" viewBox="0,0,200,200" width="200mm" xmlns="http://www.w3.org/2000/svg" xmlns:ev="http://www.w3.org/2001/xml-events" xmlns:xlink="http://www.w3.org/1999/xlink"><defs /><rect fill="#1a1a1a" height="200" width="200" x="0" y="0" /><text alignment-baseline="middle" fill="#e1ed5e" style="dominant-baseline: central; font-size:9.0px; font-family:Arial;" text-anchor="middle" x="100.0" y="100.0">2019</text><line stroke="#e1ed5e" stroke-width="0.3" x1="100.0" x2="100.0" y1="15.0" y2="10.0" /><path d="M 100.0 14.0 a86.0,86.0 0 0,1 42.46469731375804,11.215312516191453" fill="none" id="id1" stroke="none" /><text fill="#e1ed5e" style="font-size:6.75px; font-family:Arial;" text-anchor="middle"><textPath startOffset="22.20632615414155" xlink:href="#id1">January</textPath></text><line stroke="#e1ed5e" stroke-width="0.3" x1="143.23703022742887" x2="145.7803849466894" y1="26.81831364943548" y2="22.513508569990506" /><path d="M 143.74570117128098 25.957352633546492 a86.0,86.0 0 0,1 28.547481713284135,27.462654790039103" fill="none" id="id2" stroke="none" /><text fill="#e1ed5e" style="font-size:6.75px; font-family:Arial;" text-anchor="middle"><textPath startOffset="19.985693538727396" xlink:href="#id2">February</textPath></text><line stroke="#e1ed5e" stroke-width="0.3" x1="172.23445277983987" x2="176.4835382374775" y1="55.19839476539836" y2="52.563006222186495" /><path d="M 173.08426987136738 54.67131705675599 a86.0,86.0 0 0,1 12.851231095245387,41.99856678651699" fill="none" id="id3" stroke="none" /><text fill="#e1ed5e" style="font-size:6.75px; font-family:Arial;" text-anchor="middle"><textPath startOffset="22.20632615414155" xlink:href="#id3">March</textPath></text><line stroke="#e1ed5e" stroke-width="0.3" x1="184.98032266829074" x2="189.97916517819016" y1="98.17113171792111" y2="98.06355123074" /><path d="M 185.9800911702706 98.14961562048488 a86.0,86.0 0 0,1 -9.607161424134198,41.387399972396054" fill="none" id="id4" stroke="none" /><text fill="#e1ed5e" style="font-size:6.75px; font-family:Arial;" text-anchor="middle"><textPath startOffset="21.466115282336823" xlink:href="#id4">April</textPath></text><line stroke="#e1ed5e" stroke-width="0.3" x1="174.80103733775053" x2="179.2010983576182" y1="140.37084112569926" y2="142.7455964860345" /><path d="M 175.68104954172406 140.8457921977663 a86.0,86.0 0 0,1 -30.038265399797805,32.042727171017184" fill="none" id="id5" stroke="none" /><text fill="#e1ed5e" style="font-size:6.75px; font-family:Arial;" text-anchor="middle"><textPath startOffset="22.206326154141568" xlink:href="#id5">May</textPath></text><line stroke="#e1ed5e" stroke-width="0.3" x1="143.8653032363475" x2="146.44561519142675" y1="172.8068346515853" y2="177.08958963109032" /><path d="M 144.38136562736335 173.6633856474863 a86.0,86.0 0 0,1 -40.68145358897372,12.25698825130547" fill="none" id="id6" stroke="none" /><text fill="#e1ed5e" style="font-size:6.75px; font-family:Arial;" text-anchor="middle"><textPath startOffset="21.466115282336833" xlink:href="#id6">June</textPath></text><line stroke="#e1ed5e" stroke-width="0.3" x1="102.19456741930631" x2="102.32365962044197" y1="184.97166512339345" y2="189.96999836594603" /><path d="M 102.22038585953345 185.97133177190398 a86.0,86.0 0 0,1 -42.740103519485714,-10.115201625700543" fill="none" id="id7" stroke="none" /><text fill="#e1ed5e" style="font-size:6.75px; font-family:Arial;" text-anchor="middle"><textPath startOffset="22.20632615414155" xlink:href="#id7">July</textPath></text><line stroke="#e1ed5e" stroke-width="0.3" x1="58.666819895761336" x2="56.23545636021788" y1="174.27360380694188" y2="178.64263932499728" /><path d="M 58.180547188652646 175.14741091055294 a86.0,86.0 0 0,1 -31.652253787137756,-30.449443065178592" fill="none" id="id8" stroke="none" /><text fill="#e1ed5e" style="font-size:6.75px; font-family:Arial;" text-anchor="middle"><textPath startOffset="22.20632615414155" xlink:href="#id8">August</textPath></text><line stroke="#e1ed5e" stroke-width="0.3" x1="26.63291911575756" x2="22.317208475507996" y1="142.92168965132927" y2="145.44649492493687" /><path d="M 25.769776987707644 143.4266507060508 a86.0,86.0 0 0,1 -11.730757126820373,-40.83630448921669" fill="none" id="id9" stroke="none" /><text fill="#e1ed5e" style="font-size:6.75px; font-family:Arial;" text-anchor="middle"><textPath startOffset="21.46611528233685" xlink:href="#id9">September</textPath></text><line stroke="#e1ed5e" stroke-width="0.3" x1="15.007084014347285" x2="10.007500721073583" y1="101.09737516637583" y2="101.16192664675087" /><path d="M 14.007167355692545 101.11028546245083 a86.0,86.0 0 0,1 10.666146001902534,-42.60595125391555" fill="none" id="id10" stroke="none" /><text fill="#e1ed5e" style="font-size:6.75px; font-family:Arial;" text-anchor="middle"><textPath startOffset="22.20632615414155" xlink:href="#id10">October</textPath></text><line stroke="#e1ed5e" stroke-width="0.3" x1="26.266209847984243" x2="21.928928074336255" y1="57.711370442889674" y2="55.22380399835377" /><path d="M 25.398753493254645 57.213857153982495 a86.0,86.0 0 0,1 29.58750427330803,-30.492523968695096" fill="none" id="id11" stroke="none" /><text fill="#e1ed5e" style="font-size:6.75px; font-family:Arial;" text-anchor="middle"><textPath startOffset="21.46611528233685" xlink:href="#id11">November</textPath></text><line stroke="#e1ed5e" stroke-width="0.3" x1="56.762969772571076" x2="54.21961505331055" y1="26.818313649435495" y2="22.513508569990535" /><path d="M 56.25429882871897 25.957352633546506 a86.0,86.0 0 0,1 42.265352541879196,-11.944610805530505" fill="none" id="id12" stroke="none" /><text fill="#e1ed5e" style="font-size:6.75px; font-family:Arial;" text-anchor="middle"><textPath startOffset="22.20632615414155" xlink:href="#id12">December</textPath></text><path d="M 94.63758080256005 79.69619591428918 l -7.569253593494486 -28.65957255090102 a50.642278906369334,50.642278906369334 0 0,0 0.8447400075064918,-0.21534303683426484 l 7.074804697302994 28.78561858390415" fill="#ff0000" stroke="none" /><path d="M 94.98787191387505 79.60689891045804 l -12.633926141841918 -51.40429943951878 a73.9340919505117,73.9340919505117 0 0,0 1.2384886797201904,-0.2931102565253726 l 11.747213775159194 51.61415560818502" fill="#36ff6c" stroke="none" /><path d="M 95.33964822691252 79.52364482259891 l -12.987103199845748 -57.06190236138034 a79.52115472735605,79.52115472735605 0 0,0 1.337308303603782,-0.2922837981324679 l 12.002952172088445 57.27699965760868" fill="#43ffdc" stroke="none" /><path d="M 95.692805502759 79.44645832069477 l -12.114244937596808 -57.808078645554666 a80.06376966549564,80.06376966549564 0 0,0 1.3512994930541804,-0.2710579659410556 l 11.117379035075492 58.008040567572934" fill="#44ffe6" stroke="none" /><path d="M 96.04723909329186 79.375362276772 l -10.912002908335735 -56.936433073221636 a78.97265923323661,78.97265923323661 0 0,0 1.337288710610361,-0.24438096412972474 l 9.93031907662248 57.1158295187021" fill="#41ffd2" stroke="none" /><path d="M 96.75951476605007 79.25152402106235 l -8.225859823546413 -52.669289514682205 a74.30777455323049,74.30777455323049 0 0,0 1.2654650083595202,-0.1864966470799256 l 7.318025834758244 52.803080645923096" fill="#37ff74" stroke="none" /><path d="M 97.11714578562143 79.19881850522333 l -7.870862777808849 -56.792065427760924 a78.33488620742327,78.33488620742327 0 0,0 1.3372334737797238,-0.1736112837542866 l 6.892114575521267 56.91913503467935" fill="#40ffc6" stroke="none" /><path d="M 97.47563105711357 79.15227682838746 l -6.95072219417389 -57.403151213400136 a78.82243775775164,78.82243775775164 0 0,0 1.348364007291295,-0.1515044069149877 l 5.961591483372877 57.51429157378572" fill="#41ffcf" stroke="none" /><path d="M 97.83486435360386 79.11191278185805 l -6.106716531918295 -58.91438152962728 a80.23002902092563,80.23002902092563 0 0,0 1.37489388083106,-0.1305627407295903 l 5.091697523996999 59.01076981487205" fill="#44ffea" stroke="none" /><path d="M 98.19473922651362 79.07773832637324 l -5.035492801071132 -58.35937920271264 a79.57621811516725,79.57621811516725 0 0,0 1.3657166524832867,-0.10600589703835948 l 4.030185959225511 58.43741036193946" fill="#43ffdd" stroke="none" /><path d="M 98.55514903715128 79.0497635885617 l -4.283757634238979 -62.1141816521094 a83.26172292653123,83.26172292653123 0 0,0 1.4306661671853582,-0.08630169018444624 l 3.213929418213998 62.178716611674155" fill="#4bdfff" stroke="none" /><path d="M 98.91598698831166 79.02799685794201 l -3.068803802703867 -59.37102442379974 a80.45028257217047,80.45028257217047 0 0,0 1.3835884327527976,-0.05958022836992335 l 2.046374537561745 59.41505237869386" fill="#45ffee" stroke="none" /><path d="M 99.27714615592234 79.0124445844662 l -2.1685615322329856 -62.9626662466014 a84.0,84.0 0 0,0 1.445493459220484,-0.03733283143056143 l 1.0844414378176228 62.990665870174325" fill="#4dd2ff" stroke="none" /><path d="M 99.63851952072746 79.00311137660856 l -1.0117625308043714 -58.769052246948775 a79.77776080647624,79.77776080647624 0 0,0 1.3732430100768926,-0.011819936136022604 l 1.4396399326539974e-14 58.77776080647624" fill="#43ffe1" stroke="none" /></svg>