<?xml version="1.0" encoding="utf-8" ?>
<svg baseProfile="full" height="200mm" version="1.1" viewBox="0,0,200,200" width="200mm" xmlns="http://www.w3.org/2000/svg" xmlns:ev="http://www.w3.org/2001/xml-events" xmlns:xlink="http://www.w3.org/1999/xlink"><defs /><rect fill="#1a1a1a" height="200" width="200" x="0" y="0" /><text alignment-baseline="middle" fill="#e1ed5e" style="dominant-baseline: central; font-size:9.0px; font-family:Arial;" text-anchor="middle" x="100.0" y="100.0">2024</text><line stroke="#e1ed5e" stroke-width="0.3" x1="100.0" x2="100.0" y1="15.0" y2="10.0" /><path d="M 100.0 14.0 a86.0,86.0 0 0,1 42.35913384403234,11.155469271406648" fill="none" id="id61" stroke="none" /><text fill="#e1ed5e" style="font-size:6.75px; font-family:Arial;" text-anchor="middle"><textPath startOffset="22.145653131862478" xlink:href="#id61">January</textPath></text><path d="M 100.0 79.0 l 0.0 -32.52206118857965 a53.52206118857965,53.52206118857965 0 0,0 0.9187773515147833,0.007886598547827414 l -0.5582844266659286 32.517268988226256" fill="#7aff26" stroke="none" /><path d="M 100.36049292484886 79.00309439819443 l 0.2792212194388207 -16.263236203695442 a37.26563298204454,37.26563298204454 0 0,0 0.6395256175931003,0.016471911355658047 l -0.5583601511026623 16.25604657498974" fill="#ffc112" stroke="none" /><path d="M 101.44090949804482 79.04949213459386 l 1.953364341379127 -28.401488819108653 a49.46858267269597,49.46858267269597 0 0,0 0.8466924950995991,0.06553935397829519 l -2.4406258312539597 28.363771698135306" fill="#a7ff21" stroke="none" /><path d="M 101.80034050326958 79.07731436759882 l 0.9856177031030467 -11.45437172485059 a32.4966983898738,32.4966983898738 0 0,0 0.5553847257462502,0.05259551095949209 l -1.18210199223431 11.435764458385915" fill="#ff810b" stroke="none" /><path d="M 102.51750503828377 79.15144685158666 l 2.4944113565742265 -20.657304335325673 a41.80736192836736,41.80736192836736 0 0,0 0.7117647189347566,0.0921521928922103 l -2.8486538973997746 20.611440546233066" fill="#fffb17" stroke="none" /><path d="M 102.87502721639298 79.19773525538626 l 2.963720987348815 -21.44400868849758 a42.64784402020699,42.64784402020699 0 0,0 0.7243531077127323,0.1064549623645679 l -3.3313992006692295 21.38997265283413" fill="#f8ff18" stroke="none" /><path d="M 103.94208987418118 79.37332000966035 l 4.077612499223975 -21.335791630974004 a42.721945774128244,42.721945774128244 0 0,0 0.719159903624296,0.14385212197262967 l -4.443268888379229 21.262650112338516" fill="#f7ff18" stroke="none" /><path d="M 104.64783097203109 79.52079915486377 l 4.443285253889364 -19.577934669785986 a41.07581405029043,41.07581405029043 0 0,0 0.6862944004383988,0.16196360982069144 l -4.778711808067648 19.498774916319064" fill="#fff216" stroke="none" /><path d="M 106.04205211174951 79.88797359093562 l 6.3481387015213135 -21.130889117146612 a43.063846896108075,43.063846896108075 0 0,0 0.7061637649169901,0.21877133947852173 l -6.709943099309934 21.018801189861446" fill="#f3ff19" stroke="none" /><path d="M 106.38641147887787 79.99465700312896 l 4.076458139620026 -12.769447061969503 a34.40433844814864,34.40433844814864 0 0,0 0.5610811259410698,0.18443851058407512 l -4.295062003208838 12.697587629983406" fill="#ff9b0e" stroke="none" /><path d="M 106.72888874123014 80.10723608172694 l 11.431162267698287 -33.794200060026775 a56.67519346110912,56.67519346110912 0 0,0 0.9189322019875988,0.31965232133391125 l -12.009600241730904 33.592989306124274" fill="#58ff2a" stroke="none" /><path d="M 107.06938296918511 80.22567764915836 l 5.865872672206084 -16.407889853301654 a38.42490492498061,38.42490492498061 0 0,0 0.6192097463462995,0.22738239580704386 l -6.146671570206508 16.304776608485888" fill="#ffd013" stroke="none" /><path d="M 107.74402155503746 80.48000691201159 l 1.6481302189438436 -4.154364790082638 a25.46934894897168,25.46934894897168 0 0,0 0.40501787894728836,0.164717245423768 l -1.7192025590815716 4.1254602880795765" fill="#ff1d02" stroke="none" /><path d="M 108.73861861582097 80.90454125486305 l 5.015313117882452 -10.959364282482914 a33.052428433579934,33.052428433579934 0 0,0 0.5139043294056295,0.2405331747126158 l -5.202706161159587 10.871654876199765" fill="#ff890c" stroke="none" /><line stroke="#e1ed5e" stroke-width="0.3" x1="143.13028292997686" x2="145.6673583964461" y1="26.7553504044142" y2="22.446841604673864" /><path d="M 143.63769802327073 25.89364864446614 a86.0,86.0 0 0,1 29.32050498858742,28.57503671076993" fill="none" id="id62" stroke="none" /><text fill="#e1ed5e" style="font-size:6.75px; font-family:Arial;" text-anchor="middle"><textPath startOffset="20.669276256404974" xlink:href="#id62">February</textPath></text><path d="M 113.59037401385872 83.9905735841838 l 1.6224811262390573 -1.9112786870388472 a23.50707623029913,23.50707623029913 0 0,0 0.305391084114491,0.2637895448699572 l -1.6550516901164083 1.88314500970417" fill="#ff0000" stroke="none" /><path d="M 117.21940702142032 87.97951657250589 l 7.586806073574722 -5.296179860408128 a30.25252114354909,30.25252114354909 0 0,0 0.2936082998222231,0.42838328403097276 l -7.67660411021227 5.165161841307107" fill="#ff6209" stroke="none" /><line stroke="#e1ed5e" stroke-width="0.3" x1="172.87174338648825" x2="177.1583165268699" y1="56.24261187166439" y2="53.66864786411523" /><path d="M 173.72905801456457 55.72781907015455 a86.0,86.0 0 0,1 12.242430191666344,42.057860355516425" fill="none" id="id63" stroke="none" /><text fill="#e1ed5e" style="font-size:6.75px; font-family:Arial;" text-anchor="middle"><textPath startOffset="22.145653131862474" xlink:href="#id63">March</textPath></text><path d="M 118.18653347947321 89.5 l 13.275530567472854 -7.66463114676556 a36.329262293531116,36.329262293531116 0 0,0 0.30718404079610134,0.5427647662804178 l -13.405147973290331 7.435609610386024" fill="#ffb510" stroke="none" /><path d="M 118.53625476483649 90.13048839642627 l 13.927413211541419 -7.415563070476956 a36.778574536923166,36.778574536923166 0 0,0 0.291937695709936,0.5598290249518443 l -14.052658976226299 7.175387802420614" fill="#ffbb11" stroke="none" /><path d="M 118.70294669586156 90.45014215332178 l 17.819693995865894 -9.098862724635786 a41.0082682156169,41.0082682156169 0 0,0 0.31474839190616666,0.6297076254013835 l -17.973262300983798 8.791623243070653" fill="#fff116" stroke="none" /><path d="M 119.31412917781788 91.75594674310238 l 16.386599844288487 -6.99446506606865 a38.81693565171324,38.81693565171324 0 0,0 0.25632884615157187,0.6150959175238101 l -16.504254534976543 6.712136639103562" fill="#ffd513" stroke="none" /><path d="M 119.71291397450082 92.76114493625339 l 11.15447651531742 -4.096078282023385 a32.8827691900176,32.8827691900176 0 0,0 0.19003082273260943,0.531550032257408 l -11.223147508093971 3.9039932933850605" fill="#ff860c" stroke="none" /><path d="M 120.26092885502905 94.47779374421319 l 20.994139898048736 -5.7220461860065095 a42.759956861483744,42.759956861483744 0 0,0 0.18694351620095995,0.7098549806710168 l -21.089272895054425 5.360810700962694" fill="#f7ff19" stroke="none" /><path d="M 120.43855184770803 95.1765574152323 l 21.59757302555771 -5.09696842688918 a43.190859553856924,43.190859553856924 0 0,0 0.16410292725647985,0.7230677765141752 l -21.681886814371857 4.725466316435979" fill="#f2ff19" stroke="none" /><path d="M 120.65975698304385 96.23510406497455 l 18.556633619101646 -3.3816367993898466 a39.862240553989366,39.862240553989366 0 0,0 0.11690111236599493,0.6742545508653484 l -18.611949548959878 3.0625892156039054" fill="#ffe315" stroke="none" /><path d="M 120.82617615685814 97.30363454192243 l 27.30044417088302 -3.5345890718543385 a48.52830492119652,48.52830492119652 0 0,0 0.09987105219281005,0.827075579975471 l -27.35709730933549 3.065419814955454" fill="#b2ff20" stroke="none" /><path d="M 120.86939407059847 97.66154086499901 l 7.2761675023860155 -0.8153097452754139 a28.321703592984314,28.321703592984314 0 0,0 0.049991323477872884,0.48362070617559183 l -7.289091218345555 0.6902845168168907" fill="#ff4706" stroke="none" /><path d="M 120.9064616781168 98.02013634271609 l 14.27261337445538 -1.3516313257411017 a35.33647096664333,35.33647096664333 0 0,0 0.052005824010733656,0.6043865062494895 l -14.293712821163854 1.10642377211595" fill="#ffa80f" stroke="none" /><path d="M 120.98066250479742 99.09900007780936 l 21.280633883895277 -0.9138819839065093 a42.300247857264495,42.300247857264495 0 0,0 0.024927562254502485,0.725738776683686 l -21.293186133146627 0.5484369426587034" fill="#fdff18" stroke="none" /><line stroke="#e1ed5e" stroke-width="0.3" x1="184.99686870605535" x2="189.99668451229388" y1="99.2704041080226" y2="99.22748670261217" /><path d="M 185.99683186730306 99.26182062694052 a86.0,86.0 0 0,1 -10.086455211305974,41.156179273409016" fill="none" id="id64" stroke="none" /><text fill="#e1ed5e" style="font-size:6.75px; font-family:Arial;" text-anchor="middle"><textPath startOffset="21.40746469413373" xlink:href="#id64">April</textPath></text><path d="M 120.99922638620191 99.81974689727618 l 32.81487533003091 -0.2816762382075308 a53.81608423362912,53.81608423362912 0 0,0 0.0,0.9238586818627114 l -32.81487533003091 -0.2816762382075268" fill="#77ff27" stroke="none" /><path d="M 120.98066250479742 100.90099992219065 l 62.94198751439227 2.702999766571932 a84.0,84.0 0 0,0 -0.07423364217370931,1.4401128264930774 l -62.886312282761985 -3.7830843864417396" fill="#4dd2ff" stroke="none" /><path d="M 120.93736805541906 101.62068470465957 l 12.781171228502462 0.989343486862361 a33.81940476415719,33.81940476415719 0 0,0 -0.0497731087513745,0.5784389705508898 l -12.762304497053346 -1.2086035047889079" fill="#ff930d" stroke="none" /><path d="M 120.65975698304385 103.76489593502545 l 15.129758206589306 2.7571459440039203 a36.37892834843812,36.37892834843812 0 0,0 -0.11723318876859395,0.6134135816675609 l -15.080198725538553 -3.016462090704796" fill="#ffb610" stroke="none" /><path d="M 120.43855184770803 104.8234425847677 l 7.338447997060665 1.7318537457483838 a28.540035570355514,28.540035570355514 0 0,0 -0.11662338312405263,0.4758632009732208 l -7.307637087420316 -1.857572771329704" fill="#ff4a06" stroke="none" /><path d="M 120.35273937422433 105.17358676015961 l 4.902864127156909 1.2462888886222567 a26.058785688608026,26.058785688608026 0 0,0 -0.1139271735080651,0.4326000344485592 l -4.880747472844114 -1.3302694274436193" fill="#ff2603" stroke="none" /><path d="M 120.16314734710363 105.8691983318838 l 27.130769301344657 7.8973715355529475 a49.25680661457249,49.25680661457249 0 0,0 -0.2432903450920483,0.8098344329150287 l -26.99120263624898 -8.3619435720587" fill="#aaff21" stroke="none" /><path d="M 120.05942366710727 106.21446072829308 l 6.973147996060048 2.160299074053102 a28.3001154144514,28.3001154144514 0 0,0 -0.1477471998571367,0.4628159992109722 l -6.935036080425657 -2.279684106955458" fill="#ff4606" stroke="none" /><path d="M 119.71291397450082 107.23885506374661 l 25.404593779555324 9.328918726142636 a48.063298204453865,48.063298204453865 0 0,0 -0.2910560364896677,0.7720607163261627 l -25.240707059251214 -9.763647722662958" fill="#b7ff1f" stroke="none" /><path d="M 119.4528033332814 107.91128576633889 l 23.424299262893204 9.526458586456565 a46.287372523792406,46.287372523792406 0 0,0 -0.30566010920771414,0.7334729904428164 l -23.257313309149005 -9.92716408634066" fill="#ccff1d" stroke="none" /><path d="M 119.31412917781788 108.2440532568976 l 12.721021527803874 5.429847651521438 a34.83140029894235,34.83140029894235 0 0,0 -0.2394511450034004,0.5479110800743638 l -12.625936500783508 -5.647420801371647" fill="#ffa10e" stroke="none" /><line stroke="#e1ed5e" stroke-width="0.3" x1="174.33088141563837" x2="178.70328620479359" y1="141.23008692659167" y2="143.65538615756765" /><path d="M 175.20536237346943 141.71514677278685 a86.0,86.0 0 0,1 -30.301960400862466,31.631185727798858" fill="none" id="id65" stroke="none" /><text fill="#e1ed5e" style="font-size:6.75px; font-family:Arial;" text-anchor="middle"><textPath startOffset="22.145653131862474" xlink:href="#id65">May</textPath></text><path d="M 118.18653347947321 110.5 l 21.529832637051307 12.430254668609157 a45.860509337218325,45.860509337218325 0 0,0 -0.39948061069602864,0.6784054117652208 l -21.313278316225514 -12.798011248667928" fill="#d1ff1c" stroke="none" /><path d="M 117.423217284605 111.72311816256416 l 6.220850841167644 4.1856660736896885 a28.497918755794373,28.497918755794373 0 0,0 -0.27657944389686046,0.4035376743223407 l -6.148081660455464 -4.291838483082073" fill="#ff4906" stroke="none" /><path d="M 117.21940702142032 112.02048342749411 l 14.145393341034321 9.874583138651168 a38.251073732806084,38.251073732806084 0 0,0 -0.3804796079904957,0.535192217405349 l -13.973798634513864 -10.11595258276602" fill="#ffce13" stroke="none" /><path d="M 117.01052211995028 112.31430620078461 l 28.730755661018325 20.798851445880224 a56.46898000113522,56.46898000113522 0 0,0 -0.5751714656382869,0.7803305580167327 l -28.36948217579621 -21.288988313165834" fill="#5aff2a" stroke="none" /><path d="M 116.57777611688842 112.89097897827486 l 8.677667380278033 6.7478066413061155 a31.992488600457875,31.992488600457875 0 0,0 -0.34084731748759955,0.43064945104220476 l -8.560553632148872 -6.895776036263004" fill="#ff7a0b" stroke="none" /><path d="M 115.6541949942343 113.99807769240083 l 18.08339464756925 16.170283001601334 a45.25875541596504,45.25875541596504 0 0,0 -0.5228513390927686,0.5747052117363615 l -17.8031456076346 -16.478325788895365" fill="#d8ff1c" stroke="none" /><path d="M 115.41159269507618 114.26474011684316 l 28.155396209457756 26.06021439581527 a59.364842109246396,59.364842109246396 0 0,0 -0.6986511623080127,0.7419433233627737 l -27.703889213413483 -26.53969917912254" fill="#3dff2e" stroke="none" /><path d="M 115.16444852881244 114.52719865689866 l 12.583004318988708 12.05423349851799 a38.425169810606775,38.425169810606775 0 0,0 -0.4603942805890574,0.47240509040678613 l -12.374223237248845 -12.268461280992513" fill="#ffd013" stroke="none" /><path d="M 114.65682725009322 115.03919595460226 l 13.946628499076459 14.31046947096394 a40.98244186706526,40.98244186706526 0 0,0 -0.5080408197344027,0.48669161295727653 l -13.698915193476745 -14.547773214226796" fill="#fff116" stroke="none" /><path d="M 114.13192950727249 115.5334660781643 l 15.63296628725174 17.183368442302594 a44.23053563657692,44.23053563657692 0 0,0 -0.5660138956134821,0.5061331156724564 l -15.335687364814879 -17.449197087858437" fill="#e5ff1a" stroke="none" /><path d="M 113.59037401385872 116.0094264158162 l 6.981995829911378 8.224773531656806 a31.78865911111952,31.78865911111952 0 0,0 -0.41904365354934303,0.34958111959485577 l -6.83977784220014 -8.343416835163532" fill="#ff770b" stroke="none" /><path d="M 113.31354834802062 116.24036423190432 l 5.65762200625401 6.9013789311594635 a29.92399674569088,29.92399674569088 0 0,0 -0.40005423972593546,0.3222553771694586 l -5.538316996172822 -6.997482602122326" fill="#ff5d08" stroke="none" /><path d="M 113.03279911837588 116.46651593811092 l 13.210751868401315 16.69135342451037 a42.286738690329784,42.286738690329784 0 0,0 -0.5730659669084042,0.44561956202649045 l -12.92227595685768 -16.915674038157654" fill="#fdff18" stroke="none" /><path d="M 112.45986205192187 116.90419585922612 l 21.916875267826295 29.734450558577304 a57.93896278356952,57.93896278356952 0 0,0 -0.8056798748589643,0.5832500971376473 l -21.40321438259336 -30.10630142708803" fill="#4bff2c" stroke="none" /><path d="M 111.8722381534696 117.32195027204791 l 9.88256248414684 14.418954008328235 a38.480597127883,38.480597127883 0 0,0 -0.5480804493901713,0.36877298640300293 l -9.633585746659666 -14.58647666878836" fill="#ffd113" stroke="none" /><path d="M 111.5731344415666 117.5232005979908 l 4.789640797369068 7.252126630722659 a29.69102983747375,29.69102983747375 0 0,0 -0.4277125294724587,0.2772380941278697 l -4.6644426356396 -7.333278566554423" fill="#ff5a08" stroke="none" /><line stroke="#e1ed5e" stroke-width="0.3" x1="143.1302829299769" x2="145.66735839644613" y1="173.24464959558577" y2="177.55315839532614" /><path d="M 143.63769802327073 174.10635135553383 a86.0,86.0 0 0,1 -40.68552437913181,11.842963189579606" fill="none" id="id66" stroke="none" /><text fill="#e1ed5e" style="font-size:6.75px; font-family:Arial;" text-anchor="middle"><textPath startOffset="21.407464694133747" xlink:href="#id66">June</textPath></text><line stroke="#e1ed5e" stroke-width="0.3" x1="101.45913802915013" x2="101.54496967792366" y1="184.9874750549273" y2="189.98673829345242" /><path d="M 101.47630435890484 185.9873277026323 a86.0,86.0 0 0,1 -42.54439059252881,-10.42667462771756" fill="none" id="id67" stroke="none" /><text fill="#e1ed5e" style="font-size:6.75px; font-family:Arial;" text-anchor="middle"><textPath startOffset="22.145653131862474" xlink:href="#id67">July</textPath></text><line stroke="#e1ed5e" stroke-width="0.3" x1="58.13341422392154" x2="55.67067388415222" y1="173.97424548756322" y2="178.32567169271397" /><path d="M 57.64086615596768 174.84453072859336 a86.0,86.0 0 0,1 -31.369924170532247,-30.572349798747897" fill="none" id="id68" stroke="none" /><text fill="#e1ed5e" style="font-size:6.75px; font-family:Arial;" text-anchor="middle"><textPath startOffset="22.145653131862474" xlink:href="#id68">August</textPath></text><line stroke="#e1ed5e" stroke-width="0.3" x1="26.387840678322732" x2="22.057713659400548" y1="142.50000000000003" y2="145.00000000000006" /><path d="M 25.521815274538298 143.00000000000003 a86.0,86.0 0 0,1 -11.493303480769221,-40.785679425670985" fill="none" id="id69" stroke="none" /><text fill="#e1ed5e" style="font-size:6.75px; font-family:Arial;" text-anchor="middle"><textPath startOffset="21.40746469413373" xlink:href="#id69">September</textPath></text><line stroke="#e1ed5e" stroke-width="0.3" x1="15.003131293944662" x2="10.003315487706104" y1="100.72959589197737" y2="100.7725132973878" /><path d="M 14.003168132696942 100.73817937305945 a86.0,86.0 0 0,1 10.791469493833604,-42.45332614584628" fill="none" id="id70" stroke="none" /><text fill="#e1ed5e" style="font-size:6.75px; font-family:Arial;" text-anchor="middle"><textPath startOffset="22.145653131862435" xlink:href="#id70">October</textPath></text><line stroke="#e1ed5e" stroke-width="0.3" x1="26.387840678322718" x2="22.05771365940052" y1="57.49999999999999" y2="54.99999999999999" /><path d="M 25.521815274538284 56.99999999999999 a86.0,86.0 0 0,1 29.574782752854787,-30.34633250058573" fill="none" id="id71" stroke="none" /><text fill="#e1ed5e" style="font-size:6.75px; font-family:Arial;" text-anchor="middle"><textPath startOffset="21.40746469413373" xlink:href="#id71">November</textPath></text><line stroke="#e1ed5e" stroke-width="0.3" x1="56.869717070023135" x2="54.33264160355391" y1="26.7553504044142" y2="22.446841604673864" /><path d="M 56.362301976729285 25.89364864446614 a86.0,86.0 0 0,1 42.16139366436587,-11.88097634709845" fill="none" id="id72" stroke="none" /><text fill="#e1ed5e" style="font-size:6.75px; font-family:Arial;" text-anchor="middle"><textPath startOffset="22.145653131862474" xlink:href="#id72">December</textPath></text></svg>